<svg width="18" height="18" viewBox="0 0 18 18" fill="none" xmlns="http://www.w3.org/2000/svg">
    <path
    d="M8.99999 12C8.82475 12.0003 8.65493 11.9393 8.51999 11.8275L4.01999 8.0775C3.86683 7.9502 3.77051 7.76726 3.75223 7.56894C3.73394 7.37062 3.79519 7.17316 3.92249 7.02C4.0498 6.86684 4.23273 6.77052 4.43105 6.75224C4.62937 6.73395 4.82683 6.7952 4.97999 6.9225L8.99999 10.2825L13.02 7.0425C13.0967 6.9802 13.185 6.93368 13.2797 6.9056C13.3745 6.87753 13.4739 6.86846 13.5721 6.87891C13.6704 6.88937 13.7656 6.91914 13.8524 6.96652C13.9391 7.0139 14.0156 7.07796 14.0775 7.155C14.1462 7.23212 14.1982 7.32259 14.2303 7.42074C14.2624 7.5189 14.2739 7.62262 14.264 7.72542C14.2541 7.82822 14.2232 7.92787 14.173 8.01814C14.1228 8.10841 14.0546 8.18734 13.9725 8.25L9.47249 11.8725C9.33368 11.9666 9.16732 12.0115 8.99999 12Z"
    fill="#1D1D1D" />
</svg>
