       <svg
          width="81"
          height="82"
          viewBox="0 0 81 82"
          fill="none"
          xmlns="http://www.w3.org/2000/svg"
        >
          <path
            d="M79.94 81.88C35.86 81.88 0 46.02 0 1.93997C0 -42.14 35.86 -78 79.94 -78C124.02 -78 159.88 -42.14 159.88 1.93997C159.88 46.02 124.02 81.88 79.94 81.88ZM79.94 -76.99C36.41 -76.99 1 -41.58 1 1.94998C1 45.48 36.41 80.89 79.94 80.89C123.47 80.89 158.88 45.48 158.88 1.94998C158.88 -41.58 123.47 -76.99 79.94 -76.99Z"
            fill="#CCB4D2"
          />
          <path
            d="M79.94 74.16C40.12 74.16 7.72003 41.76 7.72003 1.93997C7.72003 -37.88 40.12 -70.28 79.94 -70.28C119.76 -70.28 152.16 -37.88 152.16 1.93997C152.16 41.77 119.77 74.16 79.94 74.16ZM79.94 -68.27C41.22 -68.27 9.72003 -36.77 9.72003 1.94998C9.72003 40.67 41.22 72.17 79.94 72.17C118.66 72.17 150.16 40.67 150.16 1.94998C150.16 -36.77 118.66 -68.27 79.94 -68.27Z"
            fill="#CCB4D2"
          />
          <path
            d="M79.94 54.11C51.18 54.11 27.78 30.71 27.78 1.94998C27.78 -26.81 51.18 -50.21 79.94 -50.21C108.7 -50.21 132.1 -26.81 132.1 1.94998C132.11 30.71 108.71 54.11 79.94 54.11ZM79.94 -48.22C52.28 -48.22 29.78 -25.72 29.78 1.93997C29.78 29.6 52.28 52.1 79.94 52.1C107.6 52.1 130.1 29.6 130.1 1.93997C130.11 -25.71 107.6 -48.22 79.94 -48.22Z"
            fill="#CCB4D2"
          />
          <path
            d="M79.94 45.14C56.12 45.14 36.74 25.76 36.74 1.93997C36.74 -21.88 56.12 -41.26 79.94 -41.26C103.76 -41.26 123.14 -21.88 123.14 1.93997C123.14 25.77 103.77 45.14 79.94 45.14ZM79.94 -40.25C56.67 -40.25 37.74 -21.32 37.74 1.94998C37.74 25.22 56.67 44.15 79.94 44.15C103.21 44.15 122.14 25.22 122.14 1.94998C122.14 -21.32 103.21 -40.25 79.94 -40.25Z"
            fill="#CCB4D2"
          />
          <path
            d="M79.94 28.82C65.12 28.82 53.07 16.77 53.07 1.94998C53.07 -12.87 65.12 -24.92 79.94 -24.92C94.76 -24.92 106.81 -12.87 106.81 1.94998C106.82 16.76 94.76 28.82 79.94 28.82ZM79.94 -22.93C66.23 -22.93 55.07 -11.77 55.07 1.93997C55.07 15.65 66.23 26.81 79.94 26.81C93.65 26.81 104.81 15.65 104.81 1.93997C104.82 -11.77 93.66 -22.93 79.94 -22.93Z"
            fill="#CCB4D2"
          />
          <path
            d="M79.94 15.3C72.58 15.3 66.59 9.30998 66.59 1.94998C66.59 -5.41002 72.58 -11.41 79.94 -11.41C87.3 -11.41 93.3 -5.42002 93.3 1.94998C93.3 9.30998 87.31 15.3 79.94 15.3ZM79.94 -10.41C73.13 -10.41 67.59 -4.87002 67.59 1.94998C67.59 8.76998 73.13 14.3 79.94 14.3C86.75 14.3 92.3 8.75998 92.3 1.94998C92.3 -4.86002 86.76 -10.41 79.94 -10.41Z"
            fill="#CCB4D2"
          />
        </svg>
 